<mxfile host="app.diagrams.net" modified="2024-03-06T17:50:26.580Z" agent="Mozilla/5.0 (Windows NT 10.0; Win64; x64; rv:123.0) Gecko/20100101 Firefox/123.0" etag="A0o5R2BiQcnBKZ0ZXngF" version="22.1.18" type="device">
  <diagram name="Page-1" id="lPCZcJjtXdMUmB_ePEyh">
    <mxGraphModel dx="1274" dy="669" grid="1" gridSize="10" guides="1" tooltips="1" connect="1" arrows="1" fold="1" page="1" pageScale="1" pageWidth="850" pageHeight="1100" math="0" shadow="0">
      <root>
        <mxCell id="0" />
        <mxCell id="1" parent="0" />
        <mxCell id="2EIf17YUtnSmrI8Gd4WL-1" style="edgeStyle=orthogonalEdgeStyle;rounded=0;orthogonalLoop=1;jettySize=auto;html=1;" edge="1" parent="1" source="2EIf17YUtnSmrI8Gd4WL-2">
          <mxGeometry relative="1" as="geometry">
            <mxPoint x="620" y="240" as="targetPoint" />
          </mxGeometry>
        </mxCell>
        <mxCell id="2EIf17YUtnSmrI8Gd4WL-2" value="Start" style="ellipse;whiteSpace=wrap;html=1;" vertex="1" parent="1">
          <mxGeometry x="560" y="100" width="120" height="80" as="geometry" />
        </mxCell>
        <mxCell id="2EIf17YUtnSmrI8Gd4WL-3" value="Koniec" style="ellipse;whiteSpace=wrap;html=1;" vertex="1" parent="1">
          <mxGeometry x="960" y="490" width="120" height="80" as="geometry" />
        </mxCell>
        <mxCell id="2EIf17YUtnSmrI8Gd4WL-9" value="&lt;font style=&quot;font-size: 40px;&quot;&gt;Login&lt;/font&gt;" style="text;html=1;strokeColor=none;fillColor=none;align=center;verticalAlign=middle;whiteSpace=wrap;rounded=0;" vertex="1" parent="1">
          <mxGeometry x="790" y="150" width="120" height="68.57" as="geometry" />
        </mxCell>
        <mxCell id="2EIf17YUtnSmrI8Gd4WL-10" style="edgeStyle=orthogonalEdgeStyle;rounded=0;orthogonalLoop=1;jettySize=auto;html=1;entryX=0.5;entryY=0;entryDx=0;entryDy=0;" edge="1" parent="1" source="2EIf17YUtnSmrI8Gd4WL-11" target="2EIf17YUtnSmrI8Gd4WL-16">
          <mxGeometry relative="1" as="geometry" />
        </mxCell>
        <mxCell id="2EIf17YUtnSmrI8Gd4WL-11" value="Podaj login&lt;br&gt;oraz hasło" style="shape=parallelogram;perimeter=parallelogramPerimeter;whiteSpace=wrap;html=1;fixedSize=1;" vertex="1" parent="1">
          <mxGeometry x="560" y="240" width="120" height="60" as="geometry" />
        </mxCell>
        <mxCell id="2EIf17YUtnSmrI8Gd4WL-15" style="edgeStyle=orthogonalEdgeStyle;rounded=0;orthogonalLoop=1;jettySize=auto;html=1;entryX=0;entryY=0.75;entryDx=0;entryDy=0;" edge="1" parent="1" source="2EIf17YUtnSmrI8Gd4WL-16" target="2EIf17YUtnSmrI8Gd4WL-11">
          <mxGeometry relative="1" as="geometry">
            <Array as="points">
              <mxPoint x="520" y="410" />
              <mxPoint x="520" y="284" />
            </Array>
          </mxGeometry>
        </mxCell>
        <mxCell id="2EIf17YUtnSmrI8Gd4WL-28" style="edgeStyle=orthogonalEdgeStyle;rounded=0;orthogonalLoop=1;jettySize=auto;html=1;" edge="1" parent="1" source="2EIf17YUtnSmrI8Gd4WL-16" target="2EIf17YUtnSmrI8Gd4WL-18">
          <mxGeometry relative="1" as="geometry" />
        </mxCell>
        <mxCell id="2EIf17YUtnSmrI8Gd4WL-16" value="Czy login istenieje w bazie danych?" style="rhombus;whiteSpace=wrap;html=1;" vertex="1" parent="1">
          <mxGeometry x="550" y="340" width="140" height="140" as="geometry" />
        </mxCell>
        <mxCell id="2EIf17YUtnSmrI8Gd4WL-29" style="edgeStyle=orthogonalEdgeStyle;rounded=0;orthogonalLoop=1;jettySize=auto;html=1;" edge="1" parent="1" source="2EIf17YUtnSmrI8Gd4WL-18" target="2EIf17YUtnSmrI8Gd4WL-27">
          <mxGeometry relative="1" as="geometry" />
        </mxCell>
        <mxCell id="2EIf17YUtnSmrI8Gd4WL-33" style="edgeStyle=orthogonalEdgeStyle;rounded=0;orthogonalLoop=1;jettySize=auto;html=1;entryX=1;entryY=0.5;entryDx=0;entryDy=0;" edge="1" parent="1" source="2EIf17YUtnSmrI8Gd4WL-18" target="2EIf17YUtnSmrI8Gd4WL-11">
          <mxGeometry relative="1" as="geometry">
            <Array as="points">
              <mxPoint x="830" y="270" />
            </Array>
          </mxGeometry>
        </mxCell>
        <mxCell id="2EIf17YUtnSmrI8Gd4WL-18" value="Czy login oraz&lt;br&gt;hasło się zgadzają?" style="rhombus;whiteSpace=wrap;html=1;" vertex="1" parent="1">
          <mxGeometry x="750" y="335" width="150" height="150" as="geometry" />
        </mxCell>
        <mxCell id="2EIf17YUtnSmrI8Gd4WL-21" value="Tak" style="text;html=1;strokeColor=none;fillColor=none;align=center;verticalAlign=middle;whiteSpace=wrap;rounded=0;" vertex="1" parent="1">
          <mxGeometry x="900" y="410" width="60" height="30" as="geometry" />
        </mxCell>
        <mxCell id="2EIf17YUtnSmrI8Gd4WL-24" value="Nie" style="text;html=1;strokeColor=none;fillColor=none;align=center;verticalAlign=middle;whiteSpace=wrap;rounded=0;" vertex="1" parent="1">
          <mxGeometry x="520" y="330" width="60" height="30" as="geometry" />
        </mxCell>
        <mxCell id="2EIf17YUtnSmrI8Gd4WL-30" style="edgeStyle=orthogonalEdgeStyle;rounded=0;orthogonalLoop=1;jettySize=auto;html=1;entryX=0.5;entryY=0;entryDx=0;entryDy=0;" edge="1" parent="1" source="2EIf17YUtnSmrI8Gd4WL-27" target="2EIf17YUtnSmrI8Gd4WL-3">
          <mxGeometry relative="1" as="geometry" />
        </mxCell>
        <mxCell id="2EIf17YUtnSmrI8Gd4WL-27" value="Zaloguj użytkownika" style="rounded=0;whiteSpace=wrap;html=1;" vertex="1" parent="1">
          <mxGeometry x="960" y="380" width="120" height="60" as="geometry" />
        </mxCell>
        <mxCell id="2EIf17YUtnSmrI8Gd4WL-32" value="Tak" style="text;html=1;strokeColor=none;fillColor=none;align=center;verticalAlign=middle;whiteSpace=wrap;rounded=0;" vertex="1" parent="1">
          <mxGeometry x="690" y="380" width="60" height="30" as="geometry" />
        </mxCell>
        <mxCell id="2EIf17YUtnSmrI8Gd4WL-34" value="Nie" style="text;html=1;strokeColor=none;fillColor=none;align=center;verticalAlign=middle;whiteSpace=wrap;rounded=0;" vertex="1" parent="1">
          <mxGeometry x="830" y="290" width="60" height="30" as="geometry" />
        </mxCell>
      </root>
    </mxGraphModel>
  </diagram>
</mxfile>
